<svg id="SvgjsSvg1012" width="249" height="133" xmlns="http://www.w3.org/2000/svg" version="1.1" xmlns:xlink="http://www.w3.org/1999/xlink" xmlns:svgjs="http://svgjs.com/svgjs" viewBox="0 0 249.671875 133"><defs id="SvgjsDefs1013"></defs><g id="SvgjsG1015" transform="rotate(0 62 65)"><svg height="130" viewBox="0 0 90.91547393798828 95" xmlns="http://www.w3.org/2000/svg" version="1.1" xmlns:xlink="http://www.w3.org/1999/xlink" xmlns:svgjs="http://svgjs.com/svgjs" preserveAspectRatio="none" width="124" x="0" y="0"><g><svg data-color="1" xmlns="http://www.w3.org/2000/svg" xmlns:xlink="http://www.w3.org/1999/xlink" version="1.1" x="0px" y="0px" viewBox="7 2.700000047683716 90.91547393798828 95" style="enable-background:new 0 0 100 100;" xml:space="preserve" width="90.91547393798828" height="95" fill="#181818"><path d="M76.6,47.7c-0.9-1.7-0.9-3.2-0.1-4.6c-1,0.1-2.1,0.4-3.1,0.2c-1-0.3-1.9-1-2.6-1.8c-1.1-1.4-0.9-3.4,0.2-4.8  c1.2-1.6,3-1.9,5.6-1c-0.8-1.6-0.9-3.2,0-4.7c-2.9,0.8-4.5,0.4-5.7-1.2c-1-1.4-1-3.4,0-4.8c1.2-1.7,2.9-2,5.7-1.2  c-0.8-1.6-0.9-3.1,0.1-4.8c-2.5,0.9-4.6,0.7-6-1.6c-0.9-1.5-0.6-3.4,0.5-4.7c1.3-1.5,3-1.8,5.4-0.9c-0.1-0.4-0.2-0.8-0.4-1.1  c0.1-0.1,0.1-0.1,0.2-0.2c1.4,1,2.7,2,4.1,2.9c0,0.1-0.1,0.2-0.1,0.3c-0.8-0.2-1.6-0.4-2.2-0.5c0,1.3,0,2.8,0,4.1  c1.1-0.1,2.4-0.2,3.8-0.3c-0.1-0.5-0.2-1.3-0.3-2.1c-0.1,0.1-0.1,0.2-0.2,0.3c1.7,1.5,3.5,3.1,5.4,4.8c-1.1-0.2-1.8-0.3-2.5-0.4  c0,1.1,0,2.2,0,3.3c1-0.1,2.1-0.1,3.2-0.2c0-0.5-0.1-1.1-0.1-1.7c1.9,2.1,4.1,4.1,3.1,7.6c1.9-1,2.3,0.4,2.8,1.5  c1.9,4.2,3.3,8.5,3.9,13c0.1,0.6-0.1,1.3,0,1.9c0.1,0.6,0.4,1.1,0.5,1.7c0.1,2.4,0.2,4.9,0,7.3c-0.4,4.6-1.3,9.2-3.1,13.5  c-0.8,2-1.9,4-2.8,5.9c-0.2,0.4-0.2,0.9-0.3,1.4c-0.1-0.2-0.3-0.3-0.4-0.5c-0.6,1.1-1.2,2.1-1.7,3.2l-0.1,0.1  c-1,2.1-2.7,2.8-4.9,1.9c1,5.6-2.7,7-6.4,5.5c0.1,0.8,0.3,1.6,0.4,2.4c0.1,1-0.4,1.8-1.2,2.3c-0.4,0.2-0.8,0.5-1.2,0.8  c-2.2,1.5-3.1,1-4.5-0.1c-1.4-1.2-1.8-3.3-0.9-4.9c1-2.1,3.2-2.7,5.9-1.8C76.2,82.8,76,82,76,81.2s0.3-1.5,0.4-2.2  c-0.9,0.1-2,0.4-3,0.2c-0.9-0.2-1.9-0.9-2.5-1.7c-1.1-1.3-1-3.4,0.1-4.8c1.2-1.6,2.9-2,5.6-1.1c-0.8-1.6-0.8-3.1,0-4.7  c-2.8,0.8-4.5,0.4-5.7-1.2c-1-1.4-1-3.3-0.1-4.7c1.2-1.7,2.8-2.1,5.7-1.3c-0.8-1.6-0.9-3.1,0.1-4.8c-2.4,1-4.5,0.8-5.9-1.5  c-0.9-1.5-0.7-3.5,0.5-4.8C72.4,47,74.1,46.7,76.6,47.7z M78.1,37.2c0,1.3,0,2.8,0,4c1.1-0.1,2.4-0.2,3.7-0.3c0-1.1,0-2.3,0-3.3  C80.5,37.4,79.2,37.3,78.1,37.2z M78.1,73.2c0,1.3,0,2.8,0,4c1.1-0.1,2.4-0.2,3.7-0.3c0-1.1,0-2.3,0-3.3  C80.5,73.4,79.2,73.3,78.1,73.2z M81.8,28.9c0-1,0-2.2,0-3.3c-1.3-0.1-2.6-0.2-3.7-0.3c0,1.3,0,2.8,0,4C79.2,29.1,80.5,29,81.8,28.9  z M81.8,52.9c0-1.1,0-2.3,0-3.3c-1.3-0.1-2.6-0.3-3.7-0.4c0,1.3,0,2.8,0,4C79.2,53.1,80.5,53,81.8,52.9z M78.1,65.2  c1.1-0.1,2.4-0.2,3.7-0.3c0-1.1,0-2.3,0-3.3c-1.3-0.1-2.6-0.3-3.7-0.4C78.1,62.5,78.1,64,78.1,65.2z M87.4,67.9  c-1-0.1-2-0.2-2.9-0.2c0,1.1,0,2.1,0,3.2c1-0.1,2-0.2,2.9-0.2C87.4,69.7,87.4,68.8,87.4,67.9z M84.5,34.8c1-0.1,1.9-0.2,2.9-0.2  c0-0.9,0-1.8,0-2.7c-1-0.1-2-0.1-2.9-0.2C84.5,32.7,84.5,33.7,84.5,34.8z M87.3,46.6c0-0.9,0-1.8,0-2.7c-1-0.1-2-0.1-2.8-0.2  c0,1.1,0,2.1,0,3.2C85.4,46.7,86.4,46.7,87.3,46.6z M84.5,55.6c0,1.1,0,2.2,0,3.2c1-0.1,1.9-0.2,2.8-0.2c0-0.9,0-1.8,0-2.7  C86.4,55.8,85.4,55.7,84.5,55.6z M90.9,62.1c0,0.8,0,1.5,0,2.3c0.7-0.1,1.4-0.1,2-0.2c0-0.6,0-1.3,0-1.9  C92.2,62.2,91.6,62.2,90.9,62.1z M92.9,38.3c-0.6-0.1-1.3-0.2-2-0.2c0,0.8,0,1.5,0,2.3c0.7-0.1,1.4-0.2,2-0.2  C92.9,39.5,92.9,38.9,92.9,38.3z M90.9,50.1c0,0.7,0,1.5,0,2.2c0.6-0.1,1.2-0.1,1.8-0.2c0-0.6,0-1.2,0-1.8  C92.1,50.2,91.5,50.2,90.9,50.1z"></path><path d="M72.2,57.2c0,2.2-1.7,4-3.9,4c-2.2,0-4.1-1.8-4-4c0-2.2,1.8-4,4-4C70.4,53.2,72.2,55,72.2,57.2z"></path><path d="M68.2,65.2c2.2,0,4,1.7,4,3.9c0,2.2-1.8,4.1-4,4c-2.2,0-3.9-1.8-3.9-4C64.3,67,66.1,65.3,68.2,65.2z"></path><path d="M72.2,45.2c0,2.2-1.8,4-4,4s-4-1.8-4-4s1.8-3.9,4-3.9C70.5,41.3,72.2,43.1,72.2,45.2z"></path><path d="M68.3,85.2c-2.2,0-4-1.7-4-3.9c-0.1-2.2,1.8-4.1,4-4.1s4,1.8,4,4C72.3,83.4,70.5,85.2,68.3,85.2z"></path><path d="M68.3,17.2c2.2,0,4,1.8,4,4s-1.9,4-4.1,4c-2.2-0.1-3.9-1.9-3.9-4C64.3,19,66.1,17.2,68.3,17.2z"></path><path d="M68.3,29.2c2.2,0,4,1.8,4,3.9c0,2.2-1.8,4.1-4,4c-2.2,0-3.9-1.8-3.9-4C64.3,31,66.1,29.2,68.3,29.2z"></path><path d="M72.4,9.1c-0.2,1.9-1.4,3.6-3.2,4c-1.8,0.4-3.7-0.4-4.5-2.1c-0.8-1.7-0.4-3.8,1.1-4.8c0.4-0.3,1.2-0.4,1.7-0.3  c1.4,0.5,2.7,1,4,1.7C71.9,7.9,72.1,8.6,72.4,9.1z"></path><path d="M62.3,67c-2.1,0-3.8-1.8-3.8-3.8c0-2.1,1.8-3.8,3.9-3.8c2,0,3.7,1.7,3.7,3.8C66.1,65.2,64.3,67,62.3,67z"></path><path d="M66.1,51.3c0,2.1-1.8,3.8-3.9,3.8c-2.1-0.1-3.8-1.9-3.7-3.9s1.8-3.7,3.8-3.7C64.3,47.4,66.1,49.2,66.1,51.3z"></path><path d="M62.3,71.4c2.1,0,3.8,1.8,3.8,3.9s-1.8,3.8-3.9,3.8c-2-0.1-3.7-1.8-3.7-3.8C58.4,73.2,60.2,71.4,62.3,71.4z"></path><path d="M62.2,43c-2.1,0-3.8-1.8-3.8-3.9c0-2.1,1.9-3.8,3.9-3.7s3.7,1.8,3.7,3.8C66.1,41.3,64.3,43.1,62.2,43z"></path><path d="M66.1,87.2c0,2.1-1.7,3.8-3.8,3.9c-2.1,0-3.8-1.7-3.8-3.8c0-2,1.7-3.7,3.7-3.8C64.2,83.4,66,85.1,66.1,87.2z"></path><path d="M66.1,27.2c0,2.1-1.8,3.8-3.8,3.8c-2.1,0-3.8-1.8-3.8-3.9c0-2,1.7-3.7,3.8-3.8C64.3,23.4,66.1,25.1,66.1,27.2z"></path><path d="M62.2,19c-2.1-0.1-3.8-1.9-3.7-3.9c0.1-2.1,1.9-3.8,4-3.7c2,0.1,3.7,1.9,3.6,3.9C66,17.4,64.2,19.1,62.2,19z"></path><path d="M56.3,77.6c2,0,3.6,1.6,3.6,3.6s-1.7,3.6-3.7,3.6c-2-0.1-3.5-1.7-3.5-3.7C52.7,79.2,54.3,77.6,56.3,77.6z"></path><path d="M59.9,57.2c0,2-1.6,3.6-3.6,3.6s-3.7-1.6-3.6-3.7c0-2,1.7-3.6,3.6-3.5C58.2,53.6,59.9,55.3,59.9,57.2z"></path><path d="M56.2,72.8c-2,0-3.6-1.7-3.5-3.6c0-2,1.7-3.6,3.7-3.6c2,0.1,3.5,1.7,3.5,3.7C59.8,71.3,58.2,72.8,56.2,72.8z"></path><path d="M59.9,21.2c0,2-1.6,3.6-3.6,3.6s-3.7-1.7-3.6-3.7c0-2,1.7-3.5,3.6-3.5C58.3,17.6,59.9,19.3,59.9,21.2z"></path><path d="M56.3,29.6c2,0,3.6,1.6,3.6,3.6s-1.7,3.6-3.7,3.6s-3.5-1.7-3.5-3.7C52.7,31.2,54.3,29.6,56.3,29.6z"></path><path d="M59.9,45.2c0,2-1.6,3.6-3.5,3.6c-2,0-3.7-1.6-3.6-3.6c0-2,1.6-3.6,3.6-3.6C58.2,41.6,59.8,43.2,59.9,45.2z"></path><path d="M59.9,93.3c-0.1,2-1.7,3.5-3.7,3.5s-3.6-1.7-3.5-3.8c0.1-2,1.8-3.5,3.7-3.4C58.3,89.7,59.9,91.4,59.9,93.3z"></path><path d="M56.3,5.6c2,0,3.6,1.7,3.5,3.6c0,2-1.7,3.6-3.7,3.6c-2-0.1-3.5-1.7-3.5-3.7C52.7,7.2,54.3,5.6,56.3,5.6z"></path><path d="M50.2,18.6c-1.9,0-3.3-1.6-3.3-3.5c0.1-1.8,1.6-3.3,3.5-3.2c1.9,0,3.3,1.6,3.3,3.5C53.6,17.2,52,18.6,50.2,18.6z"></path><path d="M50.3,66.6c-1.9,0-3.4-1.5-3.4-3.4s1.5-3.3,3.4-3.3s3.4,1.5,3.4,3.4C53.6,65.1,52.1,66.6,50.3,66.6z"></path><path d="M53.6,39.2c0,1.9-1.5,3.4-3.5,3.4c-1.8,0-3.3-1.5-3.3-3.4s1.5-3.4,3.5-3.4C52.2,35.9,53.6,37.4,53.6,39.2z"></path><path d="M50.2,83.8c1.9,0,3.4,1.5,3.4,3.4s-1.5,3.3-3.3,3.4c-1.9,0-3.4-1.5-3.4-3.4S48.4,83.9,50.2,83.8z"></path><path d="M50.2,47.8c1.9,0,3.4,1.5,3.4,3.4s-1.5,3.3-3.3,3.4c-1.9,0-3.4-1.5-3.4-3.4S48.4,47.9,50.2,47.8z"></path><path d="M50.3,30.6c-1.9,0-3.4-1.5-3.4-3.4s1.5-3.3,3.3-3.4c1.9,0,3.4,1.5,3.4,3.4S52.2,30.6,50.3,30.6z"></path><path d="M53.6,75.2c0,1.9-1.5,3.4-3.4,3.4s-3.3-1.5-3.4-3.3c0-1.9,1.5-3.4,3.4-3.4C52.1,71.9,53.6,73.3,53.6,75.2z"></path><path d="M64.3,93.3c0-2,1.3-3.6,3.1-4c1.9-0.4,3.7,0.5,4.5,2.2c0.3,0.7,0.4,1.1-0.5,1.5c-1.7,0.6-3.3,1.5-5,2.1  c-1.5,0.6-1.8,0.4-2.1-1.3C64.3,93.6,64.3,93.4,64.3,93.3z"></path><path d="M41.1,45c0.1-1.7,1.5-3,3.3-3c1.8,0.1,3.1,1.5,3,3.3s-1.6,3.1-3.4,3C42.3,48.3,41,46.8,41.1,45z"></path><path d="M47.4,9.2c0,1.8-1.4,3.2-3.2,3.2c-1.7,0-3.1-1.4-3.1-3.1c0-1.8,1.4-3.2,3.2-3.2C46.1,6.1,47.4,7.5,47.4,9.2z"></path><path d="M47.4,69.3c0,1.8-1.4,3.1-3.3,3.1c-1.7,0-3.1-1.4-3-3.2c0-1.8,1.4-3.1,3.3-3.1C46.1,66.1,47.4,67.5,47.4,69.3z"></path><path d="M47.4,81.2c0,1.8-1.4,3.2-3.2,3.1c-1.7,0-3.1-1.4-3.1-3.2c0-1.8,1.4-3.2,3.2-3.1C46.1,78.1,47.4,79.5,47.4,81.2z"></path><path d="M44.3,30.1c1.8,0,3.2,1.4,3.1,3.2c0,1.7-1.4,3.1-3.2,3.1S41,35,41.1,33.2C41.1,31.4,42.5,30.1,44.3,30.1z"></path><path d="M47.4,21.3c0,1.8-1.4,3.1-3.3,3.1c-1.7,0-3.1-1.4-3-3.2c0-1.8,1.4-3.1,3.3-3.1C46.1,18.1,47.4,19.5,47.4,21.3z"></path><path d="M47.4,93.2c0,1.8-1.4,3.2-3.2,3.2c-1.7,0-3.1-1.4-3.1-3.1c0-1.8,1.4-3.2,3.2-3.2C46.1,90.1,47.4,91.5,47.4,93.2z"></path><path d="M47.4,57.2c0,1.8-1.4,3.2-3.2,3.2s-3.1-1.4-3.1-3.1c0-1.8,1.4-3.2,3.2-3.2C46,54.1,47.4,55.4,47.4,57.2z"></path><path d="M38.2,54.1c-1.7,0-2.9-1.3-2.9-3c0-1.6,1.3-2.8,2.9-2.8c1.7,0,2.9,1.3,2.9,3C41.1,52.9,39.9,54.1,38.2,54.1z"></path><path d="M38.2,66.1c-1.7,0-2.9-1.3-2.9-3c0-1.6,1.3-2.8,2.9-2.8c1.7,0,2.9,1.3,2.9,3C41.1,64.9,39.9,66.1,38.2,66.1z"></path><path d="M41.2,75.3c0,1.7-1.3,2.9-3,2.9c-1.6-0.1-2.8-1.3-2.8-3s1.3-2.9,3-2.9C40,72.4,41.2,73.6,41.2,75.3z"></path><path d="M35.3,39.3c0-1.7,1.3-3,2.9-2.9c1.6,0,2.9,1.2,2.9,2.9s-1.3,3-2.9,2.9C36.6,42.1,35.4,40.9,35.3,39.3z"></path><path d="M38.3,12.3c1.7,0,2.9,1.3,2.9,3c0,1.6-1.3,2.8-2.9,2.8c-1.7,0-2.9-1.3-2.9-3C35.4,13.5,36.7,12.3,38.3,12.3z"></path><path d="M38.2,90.1c-1.7,0-2.9-1.3-2.9-3c0-1.6,1.3-2.8,2.9-2.8c1.7,0,2.9,1.3,2.9,3C41.1,88.9,39.9,90.1,38.2,90.1z"></path><path d="M41.2,27.2c0,1.7-1.3,2.9-3,2.9c-1.6,0-2.8-1.3-2.8-2.9c0-1.7,1.3-2.9,3-2.9C40,24.3,41.2,25.6,41.2,27.2z"></path><path d="M32.2,71.9c-1.5,0-2.6-1.2-2.6-2.7s1.2-2.6,2.7-2.6c1.5,0,2.6,1.2,2.6,2.7C34.9,70.7,33.7,71.9,32.2,71.9z"></path><path d="M34.9,9.2c0,1.5-1.1,2.7-2.6,2.7s-2.7-1.1-2.7-2.6s1.1-2.7,2.6-2.7C33.7,6.6,34.9,7.7,34.9,9.2z"></path><path d="M32.2,47.9c-1.5,0-2.6-1.2-2.6-2.7s1.2-2.6,2.7-2.6c1.5,0,2.6,1.2,2.6,2.7C34.9,46.7,33.7,47.9,32.2,47.9z"></path><path d="M32.2,78.6c1.5,0,2.7,1.1,2.7,2.6s-1.1,2.7-2.6,2.7s-2.7-1.1-2.7-2.6C29.6,79.8,30.7,78.6,32.2,78.6z"></path><path d="M34.9,33.2c0,1.5-1.1,2.7-2.6,2.7s-2.7-1.1-2.7-2.6s1.1-2.7,2.6-2.7C33.7,30.5,34.9,31.7,34.9,33.2z"></path><path d="M32.2,18.6c1.5,0,2.7,1.1,2.7,2.6s-1.1,2.7-2.6,2.7s-2.7-1.1-2.7-2.6C29.6,19.8,30.8,18.6,32.2,18.6z"></path><path d="M34.9,57.2c0,1.5-1.2,2.7-2.6,2.7c-1.5,0-2.7-1.2-2.7-2.6c0-1.5,1.2-2.7,2.6-2.7C33.7,54.6,34.9,55.7,34.9,57.2z"></path><path d="M46.9,2.8c0.3,0,0.6-0.1,0.8-0.1c1.9,0,3.8,0,5.8,0c0.2,1.4-0.3,2.5-1.4,3.3c-1.1,0.8-2.6,0.8-3.7,0.1  C47.3,5.3,46.7,4.3,46.9,2.8z"></path><path d="M26.2,65.6c-1.3,0-2.4-1.1-2.3-2.4c0-1.3,1.2-2.4,2.5-2.4c1.3,0.1,2.3,1.2,2.3,2.4C28.6,64.6,27.5,65.6,26.2,65.6z"></path><path d="M28.6,75.3c0,1.3-1.1,2.3-2.4,2.3s-2.4-1.2-2.4-2.5c0.1-1.3,1.2-2.3,2.5-2.3C27.6,72.9,28.7,74,28.6,75.3z"></path><path d="M26.3,84.8c1.3,0,2.4,1.1,2.4,2.4s-1.1,2.4-2.4,2.4S24,88.5,24,87.2C23.9,85.9,25,84.8,26.3,84.8z"></path><path d="M26.3,41.6c-1.3,0-2.4-1.1-2.4-2.4c0-1.3,1.1-2.4,2.5-2.4c1.3,0,2.3,1.2,2.3,2.4C28.6,40.5,27.5,41.6,26.3,41.6z"></path><path d="M28.6,15.2c0,1.3-1,2.4-2.3,2.4s-2.5-1.1-2.5-2.4s1.1-2.4,2.4-2.4C27.5,12.8,28.6,13.9,28.6,15.2z"></path><path d="M26.2,29.6c-1.3,0-2.4-1.1-2.4-2.4s1.1-2.4,2.5-2.4c1.3,0,2.3,1.2,2.3,2.4C28.6,28.5,27.5,29.6,26.2,29.6z"></path><path d="M28.6,51.2c0,1.3-1.1,2.4-2.3,2.4c-1.3,0-2.5-1.1-2.4-2.4c0-1.3,1.1-2.3,2.4-2.3C27.5,48.8,28.6,49.9,28.6,51.2z"></path><path d="M34.1,95.1c-1.4-0.6-2.7-1.1-3.9-1.7c-0.3-0.1-0.5-0.8-0.4-1.1c0.3-1,1.1-1.7,2.2-1.8c1.1-0.1,2.1,0.3,2.6,1.3  C35.2,93,35,94.1,34.1,95.1z"></path><path d="M58.4,3.2c2.4,0.6,4.7,1.1,7,1.7c-0.6,1.4-2,2.2-3.5,2.1C60.1,6.8,58.9,5.6,58.4,3.2z"></path><path d="M22.3,57.2c0,1.1-0.9,2.1-2,2.1s-2.1-0.9-2.1-2s0.9-2.1,2-2.1S22.3,56.1,22.3,57.2z"></path><path d="M20.3,23.3c-1.1,0-2.1-0.9-2.1-2s0.9-2.1,2-2.1s2.1,0.9,2.1,2S21.4,23.2,20.3,23.3z"></path><ellipse transform="matrix(1.418092e-02 -0.9999 0.9999 1.418092e-02 -25.2429 64.8375)" cx="20.3" cy="45.2" rx="2" ry="2"></ellipse><path d="M22.3,33.2c0,1.1-0.9,2.1-2,2.1s-2.1-0.9-2.1-2s0.9-2.1,2-2.1C21.4,31.2,22.3,32.1,22.3,33.2z"></path><path d="M22.3,69.3c0,1.1-1,2-2.1,2s-2-1-2-2.1s1-2,2.1-2C21.4,67.2,22.3,68.1,22.3,69.3z"></path><ellipse transform="matrix(1.411294e-02 -0.9999 0.9999 1.411294e-02 -61.2382 100.3326)" cx="20.3" cy="81.2" rx="2" ry="2"></ellipse><path d="M14.2,76.9c-0.9,0-1.7-0.8-1.7-1.7c0-1,0.8-1.7,1.8-1.7c0.9,0,1.6,0.8,1.6,1.7C15.9,76.2,15.2,76.9,14.2,76.9z"></path><path d="M14.2,28.9c-0.9,0-1.7-0.8-1.6-1.7c0-0.9,0.9-1.7,1.8-1.6c0.9,0.1,1.6,0.8,1.6,1.7C15.9,28.1,15.1,28.9,14.2,28.9z"></path><path d="M47.3,97.7c1.2-2.6,5-2.3,5.9,0C51.2,97.7,49.3,97.7,47.3,97.7z"></path><path d="M14.3,37.6c0.9,0,1.7,0.8,1.7,1.7s-0.8,1.7-1.7,1.6c-0.9,0-1.6-0.8-1.6-1.6C12.6,38.3,13.4,37.6,14.3,37.6z"></path><path d="M14.3,49.6c0.9,0,1.7,0.8,1.7,1.7s-0.8,1.7-1.7,1.6c-0.9,0-1.6-0.8-1.6-1.6C12.6,50.4,13.3,49.6,14.3,49.6z"></path><path d="M14.3,61.6c0.9,0,1.7,0.8,1.7,1.7c0,0.9-0.8,1.7-1.7,1.6c-0.9,0-1.6-0.8-1.6-1.6C12.6,62.4,13.3,61.6,14.3,61.6z"></path><path d="M35.9,4.7c1.7-0.4,3.4-0.9,5.1-1.3c0.1,1.2-0.6,2.2-1.8,2.5C37.9,6.4,36.7,6,35.9,4.7z"></path><path d="M8.5,31.8c0.3,0.5,0.8,0.9,0.9,1.4c0.1,0.7-0.4,1.2-1.1,1.2c-0.8,0-1.3-0.4-1.2-1.1c0.1-0.5,0.5-1,0.8-1.4  C8.1,31.8,8.3,31.8,8.5,31.8z"></path><path d="M7.9,70.6c-0.3-0.5-0.8-0.9-0.9-1.4C7,68.5,7.5,68,8.3,68s1.3,0.5,1.1,1.2c-0.1,0.5-0.6,0.9-0.9,1.4  C8.3,70.6,8.1,70.6,7.9,70.6z"></path><path d="M8.3,43.6c0.5,0.7,1.2,1.2,1.1,1.6c-0.1,0.5-0.7,0.8-1.1,1.2c-0.4-0.4-1-0.8-1-1.2C7.1,44.8,7.7,44.3,8.3,43.6z"></path><path d="M9.9,57.2c-0.8,0.5-1.2,1.2-1.6,1.1c-0.5-0.1-0.8-0.7-1.2-1.1c0.4-0.4,0.8-1,1.2-1C8.7,56.1,9.2,56.7,9.9,57.2z"></path><path d="M63.8,96c-1.6,0.4-3,0.7-4.5,1.1C60.5,95.4,62.1,95,63.8,96z"></path></svg></g><defs id="SvgjsDefs1014"></defs></svg></g><g id="SvgjsG1017" transform="rotate(0 196.8359375 65)"><svg xmlns="http://www.w3.org/2000/svg" xmlns:xlink="http://www.w3.org/1999/xlink" width="105.671875" viewBox="-0.320000022649765 11.680000305175781 105.68000030517578 25.799999237060547" overflow="visible" style="overflow: visible;" transform="" version="1.1" xmlns:svgjs="http://svgjs.com/svgjs" preserveAspectRatio="none" height="26" x="144" y="52" fill="#000000" stroke="none"><path stroke="none" fill="#181818" d="M28.68 36.48L28.68 36.48Q28.88 36.48 28.88 36.72L28.88 36.72L28.88 36.72Q28.88 36.96 28.68 36.96L28.68 36.96L28.68 36.96Q27.88 36.96 26.20 36.88L26.20 36.88L26.20 36.88Q24.44 36.80 23.68 36.80L23.68 36.80L23.68 36.80Q22.68 36.80 21.24 36.88L21.24 36.88L21.24 36.88Q19.88 36.96 19.08 36.96L19.08 36.96L19.08 36.96Q18.92 36.96 18.92 36.72L18.92 36.72L18.92 36.72Q18.92 36.48 19.08 36.48L19.08 36.48L19.08 36.48Q20.12 36.48 20.58 36.26L20.58 36.26L20.58 36.26Q21.04 36.04 21.04 35.48L21.04 35.48L21.04 35.48Q21.04 34.80 20.24 33.20L20.24 33.20L17.52 27.80L7.68 27.80L6.12 31.28L6.12 31.28Q5.60 32.44 5.60 33.44L5.60 33.44L5.60 33.44Q5.60 34.88 6.62 35.68L6.62 35.68L6.62 35.68Q7.64 36.48 9.36 36.48L9.36 36.48L9.36 36.48Q9.56 36.48 9.56 36.72L9.56 36.72L9.56 36.72Q9.56 36.96 9.36 36.96L9.36 36.96L9.36 36.96Q8.64 36.96 7.28 36.88L7.28 36.88L7.28 36.88Q5.76 36.80 4.64 36.80L4.64 36.80L4.64 36.80Q3.56 36.80 2.04 36.88L2.04 36.88L2.04 36.88Q0.68 36.96-0.16 36.96L-0.16 36.96L-0.16 36.96Q-0.32 36.96-0.32 36.72L-0.32 36.72L-0.32 36.72Q-0.32 36.48-0.16 36.48L-0.16 36.48L-0.16 36.48Q0.96 36.48 1.72 36.02L1.72 36.02L1.72 36.02Q2.48 35.56 3.24 34.38L3.24 34.38L3.24 34.38Q4 33.20 5.04 30.88L5.04 30.88L13.72 11.80L13.72 11.80Q13.80 11.68 14.08 11.68L14.08 11.68L14.08 11.68Q14.40 11.68 14.44 11.80L14.44 11.80L24.44 31.48L24.44 31.48Q25.84 34.32 26.76 35.40L26.76 35.40L26.76 35.40Q27.68 36.48 28.68 36.48L28.68 36.48ZM12.32 17.56L8.20 26.68L16.92 26.68L12.32 17.56ZM40.60 21.12L40.60 21.12Q41.52 21.12 42.38 21.78L42.38 21.78L42.38 21.78Q43.24 22.44 43.24 23.36L43.24 23.36L43.24 23.36Q43.24 24.20 42.72 24.74L42.72 24.74L42.72 24.74Q42.20 25.28 41.36 25.28L41.36 25.28L41.36 25.28Q40.76 25.28 40.38 25.04L40.38 25.04L40.38 25.04Q40 24.80 39.60 24.32L39.60 24.32L39.60 24.32Q39.24 23.92 38.98 23.74L38.98 23.74L38.98 23.74Q38.72 23.56 38.36 23.56L38.36 23.56L38.36 23.56Q37.96 23.56 37.50 23.86L37.50 23.86L37.50 23.86Q37.04 24.16 36.08 25.12L36.08 25.12L36.08 33.72L36.08 33.72Q36.08 35.32 36.84 35.90L36.84 35.90L36.84 35.90Q37.60 36.48 39.64 36.48L39.64 36.48L39.64 36.48Q39.80 36.48 39.80 36.72L39.80 36.72L39.80 36.72Q39.80 36.96 39.64 36.96L39.64 36.96L39.64 36.96Q38.24 36.96 37.44 36.92L37.44 36.92L34.20 36.88L31.84 36.92L31.84 36.92Q31.24 36.96 30.20 36.96L30.20 36.96L30.20 36.96Q30.08 36.96 30.08 36.72L30.08 36.72L30.08 36.72Q30.08 36.48 30.20 36.48L30.20 36.48L30.20 36.48Q31.44 36.48 31.88 35.90L31.88 35.90L31.88 35.90Q32.32 35.32 32.32 33.72L32.32 33.72L32.32 26.20L32.32 26.20Q32.32 24.96 32.02 24.38L32.02 24.38L32.02 24.38Q31.72 23.80 31.08 23.80L31.08 23.80L31.08 23.80Q30.40 23.80 29.16 24.36L29.16 24.36L29.08 24.36L29.08 24.36Q28.96 24.36 28.90 24.16L28.90 24.16L28.90 24.16Q28.84 23.96 28.92 23.92L28.92 23.92L34.48 21.20L34.48 21.20Q34.72 21.12 34.76 21.12L34.76 21.12L34.76 21.12Q35.20 21.12 35.58 21.94L35.58 21.94L35.58 21.94Q35.96 22.76 36.04 24.16L36.04 24.16L36.04 24.16Q37.68 22.48 38.74 21.80L38.74 21.80L38.74 21.80Q39.80 21.12 40.60 21.12L40.60 21.12ZM55.76 21.12L55.76 21.12Q56.68 21.12 57.54 21.78L57.54 21.78L57.54 21.78Q58.40 22.44 58.40 23.36L58.40 23.36L58.40 23.36Q58.40 24.20 57.88 24.74L57.88 24.74L57.88 24.74Q57.36 25.28 56.52 25.28L56.52 25.28L56.52 25.28Q55.92 25.28 55.54 25.04L55.54 25.04L55.54 25.04Q55.16 24.80 54.76 24.32L54.76 24.32L54.76 24.32Q54.40 23.92 54.14 23.74L54.14 23.74L54.14 23.74Q53.88 23.56 53.52 23.56L53.52 23.56L53.52 23.56Q53.12 23.56 52.66 23.86L52.66 23.86L52.66 23.86Q52.20 24.16 51.24 25.12L51.24 25.12L51.24 33.72L51.24 33.72Q51.24 35.32 52 35.90L52 35.90L52 35.90Q52.76 36.48 54.80 36.48L54.80 36.48L54.80 36.48Q54.96 36.48 54.96 36.72L54.96 36.72L54.96 36.72Q54.96 36.96 54.80 36.96L54.80 36.96L54.80 36.96Q53.40 36.96 52.60 36.92L52.60 36.92L49.36 36.88L47 36.92L47 36.92Q46.40 36.96 45.36 36.96L45.36 36.96L45.36 36.96Q45.24 36.96 45.24 36.72L45.24 36.72L45.24 36.72Q45.24 36.48 45.36 36.48L45.36 36.48L45.36 36.48Q46.60 36.48 47.04 35.90L47.04 35.90L47.04 35.90Q47.48 35.32 47.48 33.72L47.48 33.72L47.48 26.20L47.48 26.20Q47.48 24.96 47.18 24.38L47.18 24.38L47.18 24.38Q46.88 23.80 46.24 23.80L46.24 23.80L46.24 23.80Q45.56 23.80 44.32 24.36L44.32 24.36L44.24 24.36L44.24 24.36Q44.12 24.36 44.06 24.16L44.06 24.16L44.06 24.16Q44 23.96 44.08 23.92L44.08 23.92L49.64 21.20L49.64 21.20Q49.88 21.12 49.92 21.12L49.92 21.12L49.92 21.12Q50.36 21.12 50.74 21.94L50.74 21.94L50.74 21.94Q51.12 22.76 51.20 24.16L51.20 24.16L51.20 24.16Q52.84 22.48 53.90 21.80L53.90 21.80L53.90 21.80Q54.96 21.12 55.76 21.12L55.76 21.12ZM64.36 17.16L64.36 17.16Q63.20 17.16 62.56 16.52L62.56 16.52L62.56 16.52Q61.92 15.88 61.92 14.72L61.92 14.72L61.92 14.72Q61.92 13.68 62.58 13.06L62.58 13.06L62.58 13.06Q63.24 12.44 64.36 12.44L64.36 12.44L64.36 12.44Q65.48 12.44 66.08 13.04L66.08 13.04L66.08 13.04Q66.68 13.64 66.68 14.72L66.68 14.72L66.68 14.72Q66.68 15.88 66.08 16.52L66.08 16.52L66.08 16.52Q65.48 17.16 64.36 17.16L64.36 17.16ZM60.52 36.96L60.52 36.96Q60.40 36.96 60.40 36.72L60.40 36.72L60.40 36.72Q60.40 36.48 60.52 36.48L60.52 36.48L60.52 36.48Q61.76 36.48 62.20 35.90L62.20 35.90L62.20 35.90Q62.64 35.32 62.64 33.72L62.64 33.72L62.64 26.56L62.64 26.56Q62.64 25.20 62.36 24.60L62.36 24.60L62.36 24.60Q62.08 24 61.44 24L61.44 24L61.44 24Q60.92 24 59.96 24.44L59.96 24.44L59.92 24.44L59.92 24.44Q59.76 24.44 59.68 24.22L59.68 24.22L59.68 24.22Q59.60 24 59.72 23.96L59.72 23.96L65.76 21.16L65.88 21.12L65.88 21.12Q66.08 21.12 66.28 21.32L66.28 21.32L66.28 21.32Q66.48 21.52 66.48 21.68L66.48 21.68L66.48 22.56L66.48 22.56Q66.40 24.16 66.40 26.48L66.40 26.48L66.40 33.72L66.40 33.72Q66.40 35.32 66.86 35.90L66.86 35.90L66.86 35.90Q67.32 36.48 68.56 36.48L68.56 36.48L68.56 36.48Q68.68 36.48 68.68 36.72L68.68 36.72L68.68 36.72Q68.68 36.96 68.56 36.96L68.56 36.96L68.56 36.96Q67.52 36.96 66.92 36.92L66.92 36.92L64.52 36.88L62.16 36.92L62.16 36.92Q61.56 36.96 60.52 36.96L60.52 36.96ZM87.64 21.52L87.64 21.52Q87.72 21.52 87.72 21.76L87.72 21.76L87.72 21.76Q87.72 22 87.64 22L87.64 22L87.64 22Q86.48 22 85.58 22.88L85.58 22.88L85.58 22.88Q84.68 23.76 83.88 25.60L83.88 25.60L78.96 36.96L78.96 36.96Q78.92 37.16 78.52 37.16L78.52 37.16L78.52 37.16Q78.20 37.16 78.08 36.96L78.08 36.96L71.96 24.84L71.96 24.84Q71.12 23.08 70.48 22.54L70.48 22.54L70.48 22.54Q69.84 22 68.92 22L68.92 22L68.92 22Q68.80 22 68.80 21.76L68.80 21.76L68.80 21.76Q68.80 21.52 68.92 21.52L68.92 21.52L68.92 21.52Q69.64 21.52 70.12 21.56L70.12 21.56L72.80 21.60L75.88 21.56L75.88 21.56Q76.56 21.52 77.76 21.52L77.76 21.52L77.76 21.52Q77.88 21.52 77.88 21.76L77.88 21.76L77.88 21.76Q77.88 22 77.76 22L77.76 22L77.76 22Q75.44 22 75.44 22.92L75.44 22.92L75.44 22.92Q75.44 23.16 75.64 23.56L75.64 23.56L80.12 31.96L82.76 25.56L82.76 25.56Q83.08 24.72 83.08 24.12L83.08 24.12L83.08 24.12Q83.08 23.12 82.40 22.56L82.40 22.56L82.40 22.56Q81.72 22 80.52 22L80.52 22L80.52 22Q80.44 22 80.44 21.76L80.44 21.76L80.44 21.76Q80.44 21.52 80.52 21.52L80.52 21.52L80.52 21.52Q81.60 21.52 82.16 21.56L82.16 21.56L84.56 21.60L86.16 21.56L86.16 21.56Q86.64 21.52 87.64 21.52L87.64 21.52ZM96.56 37.48L96.56 37.48Q94.08 37.48 92.22 36.34L92.22 36.34L92.22 36.34Q90.36 35.20 89.36 33.26L89.36 33.26L89.36 33.26Q88.36 31.32 88.36 29.04L88.36 29.04L88.36 29.04Q88.36 26.44 89.68 24.62L89.68 24.62L89.68 24.62Q91.00 22.80 93.04 21.90L93.04 21.90L93.04 21.90Q95.08 21 97.24 21L97.24 21L97.24 21Q99.72 21 101.56 22.16L101.56 22.16L101.56 22.16Q103.40 23.32 104.38 25.22L104.38 25.22L104.38 25.22Q105.36 27.12 105.36 29.28L105.36 29.28L105.36 29.28Q105.36 31.68 104.16 33.54L104.16 33.54L104.16 33.54Q102.96 35.40 100.94 36.44L100.94 36.44L100.94 36.44Q98.92 37.48 96.56 37.48L96.56 37.48ZM97.76 36.64L97.76 36.64Q99.32 36.64 100.14 35.10L100.14 35.10L100.14 35.10Q100.96 33.56 100.96 30.68L100.96 30.68L100.96 30.68Q100.96 27.88 100.24 25.88L100.24 25.88L100.24 25.88Q99.52 23.88 98.36 22.86L98.36 22.86L98.36 22.86Q97.20 21.84 95.88 21.84L95.88 21.84L95.88 21.84Q92.68 21.84 92.68 27.56L92.68 27.56L92.68 27.56Q92.68 30.24 93.36 32.30L93.36 32.30L93.36 32.30Q94.04 34.36 95.20 35.50L95.20 35.50L95.20 35.50Q96.36 36.64 97.76 36.64L97.76 36.64Z" transform="rotate(0 52.520000129938126 24.579999923706055)"></path><defs id="SvgjsDefs1016"></defs></svg></g></svg>